v 0.217559392834119 0.0956600980224841 0.144586943419848
v 0.242201857734252 0.0892483388276921 0.152493235859864
v 0.233913623873676 0.0957941302237672 0.120462755822105
v 0.225053697023072 0.0925796494888859 0.166296715486467
v 0.235039603078824 0.104838554563183 0.137265387599946
v 0.225852739514825 0.0833835619125441 0.154385973236192
v 0.226325419865753 0.0844751969893425 0.135933427093489
v 0.222713598212457 0.0960904769849158 0.123896724575291
v 0.24362109368667 0.0911062497997909 0.137239623046178
v 0.235922326295999 0.10365895873166 0.155116207578703
v 0.22495021577239 0.101778334552564 0.157583844375575
v 0.233718737408232 0.0903341392251384 0.16088610758467
v 0.235242754146716 0.0875253233771729 0.142610559433478
v 0.230413158429819 0.103360446303486 0.126987483038495
v 0.220774599022853 0.0837187729132772 0.145760811952411
v 0.220453073958497 0.0907855266734331 0.155178402612784
v 0.24151640275049 0.099114324278999 0.145629806740587
v 0.221606632754813 0.100477587302399 0.135174581828682
v 0.240594096249012 0.0987561048082577 0.128441015747267
v 0.226576344380192 0.0879173071998793 0.12442401247217
v 0.226729139682456 0.103468838952648 0.14624392883315
v 0.218764556388679 0.0890642923096971 0.132365041917528
v 0.237062293287664 0.089948852002161 0.128109971484331
v 0.234149885375412 0.0983436896236243 0.164686253354166

